<?xml version="1.0" encoding="utf-8"?>
<!-- Generator: Adobe Illustrator 20.0.0, SVG Export Plug-In . SVG Version: 6.00 Build 0)  -->
<svg version="1.1" id="Isolation_Mode" xmlns="http://www.w3.org/2000/svg" xmlns:xlink="http://www.w3.org/1999/xlink" x="0px"
	 y="0px" viewBox="0 0 548.5 175.9" style="enable-background:new 0 0 548.5 175.9;" xml:space="preserve">
<style type="text/css">
	.st0{fill:#FFFFFF;}
</style>
<g>
	<g>
		<polygon class="st0" points="202.7,87.9 235.8,87.9 235.8,78 202.7,78 202.7,57.9 240.3,57.9 240.3,48 192.7,48 192.7,123.4 
			240.3,123.4 240.3,113.4 202.7,113.4 		"/>
		<path class="st0" d="M293.6,75.3c-4.9-4-11-6.2-17.2-6.2c-7.2,0-14,2.8-19.1,7.9c-5.1,5.1-7.9,11.9-7.9,19.1
			c0,7.3,2.8,14.1,7.9,19.2c5.1,5.1,11.9,7.9,19.1,7.9c6.3,0,12.3-2.2,17.2-6.2v6.2h9.9V48h-9.9V75.3z M276.4,113.4
			c-9.4,0-17.1-7.7-17.1-17.2c0-9.4,7.7-17.1,17.1-17.1c9.5,0,17.2,7.7,17.2,17.1C293.6,105.7,285.9,113.4,276.4,113.4z"/>
		<path class="st0" d="M347.9,100.7c0,7-5.7,12.7-12.7,12.7c-7,0-12.6-5.7-12.6-12.7V69.2h-9.9v31.5c0,6.1,2.4,11.7,6.6,16
			c4.3,4.3,9.9,6.6,15.9,6.6c4.6,0,9-1.3,12.7-3.9v3.9h9.9V69.2h-9.9V100.7z"/>
		<path class="st0" d="M424.6,69.2c-6,0-11.6,2.4-15.9,6.6c-0.6,0.6-1.2,1.2-1.7,1.9c-0.5-0.6-1.1-1.3-1.7-1.9
			c-4.3-4.3-10-6.6-16-6.6c-4.5,0-8.9,1.3-12.6,3.9v-3.9h-9.9v54.2h9.9V91.7c0-7,5.7-12.6,12.6-12.6c7,0,12.7,5.7,12.7,12.6v31.6
			h9.9V91.7c0-7,5.7-12.6,12.6-12.6c7,0,12.7,5.7,12.7,12.6v31.6h9.9V91.7c0-6-2.4-11.6-6.6-15.9C436.4,71.6,430.7,69.2,424.6,69.2z
			"/>
		<path class="st0" d="M500.6,75.3c-4.9-4-11-6.2-17.2-6.2c-7.2,0-14,2.8-19.1,7.9s-7.9,11.9-7.9,19.1c0,7.3,2.8,14.1,7.9,19.2
			c5.1,5.1,11.9,7.9,19.1,7.9c6.3,0,12.3-2.2,17.2-6.2v6.2h9.9V69.2h-9.9V75.3z M483.4,113.4c-9.4,0-17.1-7.7-17.1-17.2
			c0-9.4,7.7-17.1,17.1-17.1c9.5,0,17.2,7.7,17.2,17.1C500.6,105.7,492.9,113.4,483.4,113.4z"/>
		<rect x="519.6" y="48" class="st0" width="9.9" height="75.4"/>
		<rect x="538.5" y="48" class="st0" width="9.9" height="75.4"/>
	</g>
	<path class="st0" d="M156.5,113.4c0-4.6-5-7.5-9-5.2l-59.7,34.5l-6.6,3.8c-1.9,1.1-4.1,1.1-6,0l-7.6-4.4L31.2,121l-1.4-0.8
		c-2.3-1.3-3.7-3.8-3.7-6.4v-1.3v-4.6V61.3c0-2.1,1.1-4.1,3-5.2l40.1-23.1l5.8-3.3c1.9-1.1,4.3-1.2,6.3-0.2l0,0l7.2,4.2L112,47.2
		l9.4,5.4c4,2.3,4,8.1,0,10.4l-2.1,1.2l-38.1,22c-1.9,1.1-4.1,1.1-6,0l-14.1-8.1c-4-2.3-9,0.6-9,5.2l0,16.3c0,2.1,1.1,4.1,3,5.2
		l20.1,11.6c1.9,1.1,4.1,1.1,6,0L121,93.4c0.2-0.1,0.3-0.2,0.5-0.3l0,0l-0.5,0.3l0.5-0.3c0,0,0,0,0,0l27.2-15.7
		c0.3-0.2,0.6-0.4,0.9-0.6c0.1,0,0.1-0.1,0.2-0.1c0.5-0.4,1.1-0.8,1.5-1.2c3.3-3,5.2-7.2,5.2-11.7l0-3.7l0-8.2v0v0c0-0.4,0-0.7,0-1
		c0-0.7-0.1-1.4-0.3-2.1c-0.1-0.7-0.3-1.3-0.5-2c-0.2-0.6-0.5-1.3-0.8-1.9c-0.2-0.3-0.3-0.6-0.5-0.9c-0.2-0.4-0.4-0.7-0.7-1.1
		c-0.1-0.1-0.1-0.2-0.2-0.2c-0.2-0.3-0.5-0.6-0.7-0.9c0,0-0.1-0.1-0.1-0.1c-0.9-1-1.8-1.9-2.9-2.7c0,0-0.1-0.1-0.1-0.1
		c-0.4-0.2-0.7-0.5-1.1-0.7L86.1,2.1c-0.5-0.3-0.9-0.5-1.4-0.7s-1-0.4-1.4-0.6c-0.3-0.1-0.7-0.2-1-0.3c-0.7-0.2-1.4-0.3-2.1-0.4
		c-0.5-0.1-1-0.1-1.5-0.1c-1,0-2,0-3,0.2c-0.5,0.1-1,0.2-1.5,0.3c-0.3,0.1-0.7,0.2-1,0.3c-0.7,0.2-1.3,0.5-1.9,0.8
		c-0.3,0.2-0.6,0.3-0.9,0.5l-0.2,0.1l0,0c0,0-0.1,0.1-0.2,0.1l-0.4,0.2l-1.2,0.7l-0.9,0.5l-1.6,0.9l-0.1,0.1l-1,0.6
		c-0.5,0.3-1,0.6-1.5,0.9l-2,1.2c-0.1,0.1-0.2,0.1-0.3,0.2L25.6,28L7.9,38.2C3,41,0,46.2,0,51.8l0,24.1v1.7l0,7.5c0,0,0,0,0,0v0v0v0
		l0,38.9v0.1v0c0,0,0,0.1,0,0.1c0,0.2,0,0.3,0,0.5c0.1,1.6,0.3,3.1,0.8,4.5c0,0,0,0.1,0,0.1c0.5,1.4,1.2,2.7,2,3.9
		c0.3,0.5,0.7,0.9,1,1.3c1.1,1.3,2.4,2.4,3.9,3.2l62.5,36.1c4.7,2.7,10.4,2.8,15.2,0.3c0.2-0.1,0.4-0.2,0.5-0.3l36.3-21l0.3-0.2
		c0.9-0.5,1.8-1,2.7-1.6l0.1,0l0.5-0.3l1.5-0.9c2.1-1.2,4.2-2.5,6.3-3.6c0.8-0.5,1.6-0.9,2.4-1.4c2.3-1.3,4.5-2.6,6.5-3.7l1.3-0.8
		c1.9-1.1,3.7-2.1,5.1-3l1.4-0.8l0.8-0.5c0.1-0.1,0.3-0.1,0.4-0.2l0.6-0.3c0.2-0.1,0.4-0.2,0.5-0.3l0.4-0.2c0,0,0,0,0,0l0.2-0.1
		c1.9-1.1,3-3.1,3-5.2L156.5,113.4z"/>
</g>
</svg>
